<svg width="24" height="24" fill="none" xmlns="http://www.w3.org/2000/svg"><path d="M19.2 12.176c0-.496-.048-1.008-.128-1.488h-6.928v2.832h3.968a3.338 3.338 0 01-1.472 2.224l2.368 1.84C18.4 16.288 19.2 14.4 19.2 12.176z" fill="#4280EF"/><path d="M12.144 19.344c1.984 0 3.648-.656 4.864-1.776l-2.368-1.824c-.656.448-1.504.704-2.496.704-1.92 0-3.536-1.296-4.128-3.024l-2.432 1.872a7.337 7.337 0 006.56 4.048z" fill="#34A353"/><path d="M8.016 13.408a4.462 4.462 0 010-2.816L5.584 8.704a7.354 7.354 0 000 6.592l2.432-1.888z" fill="#F6B704"/><path d="M12.144 7.568a4.007 4.007 0 012.816 1.104l2.096-2.112a7.068 7.068 0 00-4.912-1.904 7.337 7.337 0 00-6.56 4.048l2.432 1.888c.592-1.744 2.208-3.024 4.128-3.024z" fill="#E54335"/></svg>