<svg width="40" height="40" fill="none" xmlns="http://www.w3.org/2000/svg"><path d="M20.154 39.846c-9.615 0-20-7.461-20-19.615h2.308c0 10.692 9.153 17.307 17.692 17.307v2.308zM19.846.154v2.308c8.539 0 17.692 6.615 17.692 17.307h2.308c0-12.077-10.384-19.615-20-19.615zm-8.23 22c-.077-.385-.54-.692-.924-.539-.384.077-.692.539-.538.923.154.539.308 1.077.538 1.539.154.308.385.461.693.461.077 0 .23 0 .307-.076.385-.154.539-.616.385-1-.154-.462-.308-.924-.462-1.308zM14.307 13a5.81 5.81 0 011.077-.846c.384-.231.461-.693.23-1.077-.23-.385-.692-.462-1.076-.23-.462.307-.924.691-1.308 1a.824.824 0 00-.077 1.076.83.83 0 00.538.23c.308.078.462 0 .616-.153zm-3.693 5.462h.154c.385 0 .693-.231.77-.616.076-.461.23-.923.384-1.384.154-.385-.077-.847-.461-1-.385-.154-.847.076-1 .461A6.385 6.385 0 0010 17.538a.798.798 0 00.615.924zM30.77 23.23c0-.077.077-.231.077-.308 0-.077 0-.077.077-.154v-.077c.23-.923.385-1.846.385-2.846 0-.692-.077-1.308-.154-1.923v-.154c0-.077-.077-.154-.077-.307C31 17.23 31 17 30.923 16.768c0-.077-.077-.23-.077-.307 0-.077-.077-.154-.077-.231v-.077c-.538-1.539-1.461-2.923-2.615-4.077-.23-.23-.385-.385-.616-.539 0 0-.076 0-.076-.077-.154-.153-.385-.307-.539-.461-1.308-.923-2.846-1.539-4.461-1.846h-.077c-.154 0-.231 0-.385-.077h-.23c-.308 0-.616-.077-.924-.077h-.077c-.461 0-.923 0-1.384.077a.901.901 0 00-.693.846.901.901 0 00.846.692c.385-.077.77-.077 1.231-.077V29h-.846c-.461-.077-.77.308-.846.692 0 .462.308.77.692.846.308 0 .616.077.923.077h.77c1.692-.153 3.23-.615 4.615-1.384h.077c.154-.077.308-.154.461-.308.077-.077.154-.077.231-.154.23-.154.462-.307.692-.538 1.231-1 2.308-2.308 3-3.846 0 0 0-.077.077-.077 0-.077.077-.077.077-.154.077-.077.077-.231.154-.308-.23-.23-.154-.461-.077-.615zm-15 4.461c-.384-.23-.769-.538-1.154-.846-.307-.308-.846-.23-1.076.077-.308.308-.231.846.076 1.077.385.385.847.692 1.308 1 .154.077.23.077.385.077.23 0 .538-.154.692-.385.23-.307.154-.769-.23-1z" fill="#315EFB"/></svg>