<svg width="32" height="32" fill="none" xmlns="http://www.w3.org/2000/svg"><path d="M16 5.333C10.109 5.333 5.333 10.11 5.333 16S10.11 26.667 16 26.667 26.666 21.891 26.666 16 21.892 5.333 16 5.333zM2.666 16C2.666 8.636 8.636 2.667 16 2.667S29.333 8.637 29.333 16c0 7.364-5.97 13.333-13.333 13.333-7.364 0-13.334-5.97-13.334-13.333zm7.724-5.61a1.335 1.335 0 011.886 0L16 14.114l3.724-3.724a1.333 1.333 0 011.885 1.886L17.885 16l3.724 3.724a1.333 1.333 0 01-1.885 1.886L16 17.886l-3.724 3.724a1.333 1.333 0 11-1.886-1.886L14.114 16l-3.724-3.724a1.333 1.333 0 010-1.886z" fill="#989EB1"/></svg>