<svg width="40" height="40" fill="none" xmlns="http://www.w3.org/2000/svg"><path d="M20.154 39.846c-9.615 0-20-7.461-20-19.615h2.308c0 10.692 9.153 17.307 17.692 17.307v2.308zM19.846.154v2.308c8.539 0 17.692 6.615 17.692 17.307h2.308c0-12.077-10.384-19.615-20-19.615zm-.23 31.538c5.922-3.154 9.769-10.538 9.769-18.769 0-.615-.539-1.154-1.154-1.154H9.846c-.615 0-1.154.539-1.154 1.154 0 8.308 3.847 15.615 9.77 18.77.153.076.384.153.538.153.154 0 .385-.077.615-.154zM27 14c-.308 6.615-3.462 12.538-8 15.308-4.538-2.693-7.615-8.693-8-15.308h16zm-7.923 9.615c.23 0 .385-.153.538-.307l3.462-5.385-1.308-.846-3 4.692-1.846-1.384-.923 1.23 2.462 1.847c.153.076.307.153.461.153.077.077.154 0 .154 0z" fill="#315EFB"/></svg>