<svg width="40" height="40" fill="none" xmlns="http://www.w3.org/2000/svg"><path d="M20.154 39.846c-9.615 0-20-7.461-20-19.615h2.308c0 10.692 9.153 17.307 17.692 17.307v2.308zM19.846.154v2.308c8.539 0 17.692 6.615 17.692 17.307h2.308c0-12.077-10.384-19.615-20-19.615zm-10 16.615c0-.23.077-.384.308-.461l8.692-4.616c.308-.154.692-.23 1-.23.308 0 .692.076 1 .23l8.692 4.616c.154.077.308.307.308.461 0 .231-.077.385-.308.462l-8.692 4.615c-.308.154-.692.23-1 .23-.308 0-.692-.076-1-.23l-8.692-4.615c-.23-.077-.308-.308-.308-.462zM28 22.231l-7.692 4.154c-.154.076-.308.153-.539.153-.154 0-.307-.076-.538-.153l-7.693-4.154 2.539-1.308-2.23-1.154-2 1c-.54.308-.847.846-.847 1.385 0 .538.308 1.077.846 1.384l8.462 4.539c.461.23.923.384 1.461.384.539 0 1-.153 1.462-.384l8.461-4.539c.539-.307.846-.846.846-1.384 0-.539-.307-1.077-.846-1.385l-2-1.077-2.23 1.154L28 22.231z" fill="#315EFB"/></svg>