<svg width="40" height="40" viewBox="0 0 40 40" fill="none" xmlns="http://www.w3.org/2000/svg">
<g filter="url(#filter0_i_2593_7721)">
<path d="M10.0459 36.1063C10.0459 35.437 10.0459 34.7676 10.0459 34.0983C10.0507 34.0709 10.0497 34.0429 10.0431 34.0159C10.0365 33.9889 10.0243 33.9636 10.0074 33.9414C9.99051 33.9193 9.96919 33.9008 9.94479 33.8872C9.92039 33.8735 9.89342 33.865 9.86555 33.8621C8.19123 33.3908 6.64585 32.5511 5.34457 31.4058C4.39645 30.5512 3.60703 29.5384 3.01224 28.4134C2.1739 26.7884 1.61597 25.0358 1.36158 23.2282C1.0464 20.9609 0.936933 18.6701 1.03451 16.3833C1.0559 15.3172 1.11093 14.2632 1.2332 13.1971C1.4282 11.1712 1.94398 9.18833 2.76159 7.3214C3.77118 5.02593 5.60273 3.18207 7.9031 2.14532C9.47011 1.43481 11.1187 0.916103 12.8123 0.600669C14.4732 0.288963 16.1548 0.0976467 17.8438 0.0282407C19.3662 -0.025104 20.8904 -0.00286554 22.4106 0.0948725C24.5864 0.185869 26.7425 0.542935 28.8298 1.15795C30.3775 1.59999 31.8498 2.26864 33.198 3.14176C34.5116 4.03527 35.5741 5.24538 36.2853 6.65811C37.1215 8.30812 37.6899 10.0784 37.9696 11.9038C38.1513 12.9876 38.2707 14.0807 38.3273 15.1779C38.4067 16.5378 38.3976 17.9037 38.3456 19.2576C38.2936 20.6114 38.1775 21.9259 38.0094 23.2525C37.7968 25.2435 37.1792 27.1713 36.1936 28.9192C34.9108 31.1304 32.8559 32.8001 30.4163 33.6137C28.7482 34.1925 27.0258 34.6045 25.2748 34.8434C23.994 35.019 22.7102 35.1462 21.4202 35.1977C20.4329 35.2432 19.4455 35.231 18.4582 35.2159C17.8988 35.2159 17.3424 35.1614 16.7861 35.1129C16.7315 35.1027 16.6751 35.1088 16.6239 35.1303C16.5728 35.1519 16.5292 35.188 16.4988 35.2341C15.3739 36.5728 14.2062 37.8751 13.0293 39.1714C12.815 39.4079 12.5668 39.612 12.2926 39.7771C12.1127 39.8941 11.9075 39.9675 11.6937 39.9914C11.4798 40.0153 11.2633 39.9891 11.0616 39.9148C10.8599 39.8405 10.6786 39.7203 10.5324 39.5638C10.3863 39.4073 10.2793 39.2189 10.2201 39.0139C10.1037 38.6496 10.0459 38.2694 10.049 37.8872C10.0459 37.2875 10.0459 36.6969 10.0459 36.1063ZM11.4062 38.6474L11.5498 38.5142L14.1023 35.7066C15.0845 34.6263 16.0657 33.5451 17.0459 32.4628C17.0941 32.3968 17.1591 32.3446 17.2343 32.3116C17.3095 32.2786 17.3922 32.266 17.4739 32.275C17.8071 32.3083 18.1403 32.3204 18.4765 32.3235C19.6381 32.3235 20.7997 32.3235 21.9612 32.2417C23.0158 32.1599 24.0674 32.0327 25.1128 31.8692C26.2384 31.675 27.3526 31.4212 28.4508 31.109C30.8962 30.4578 32.7884 29.0646 33.9775 26.8082C34.6795 25.4209 35.1198 23.9182 35.2766 22.3741C35.4624 20.9188 35.5736 19.455 35.6098 17.9885C35.664 16.1463 35.537 14.3032 35.2308 12.4854C35.0184 11.1683 34.6362 9.88372 34.0936 8.66312C33.4028 7.14876 32.4246 5.89487 30.9176 5.08923C28.6067 3.85351 26.1063 3.30229 23.5294 3.02061C22.7988 2.94187 22.0682 2.89947 21.3346 2.87221C19.8324 2.79547 18.3271 2.80356 16.8259 2.89644C15.7462 2.97583 14.6724 3.11944 13.6101 3.32652C12.048 3.60866 10.5367 4.11901 9.12581 4.84087C8.30786 5.25038 7.56578 5.79415 6.93104 6.44912C5.90233 7.58834 5.14774 8.94386 4.72404 10.4137C4.2214 12.1256 3.94702 13.8952 3.90788 15.6776C3.80953 17.46 3.832 19.2469 3.97513 21.0264C4.06418 22.0853 4.24313 23.1349 4.51007 24.1641C4.90723 25.7679 5.67771 27.2574 6.75986 28.5133C7.92817 29.7947 9.43817 30.7228 11.1158 31.1907C11.3267 31.2543 11.4215 31.327 11.4215 31.5633C11.4031 32.4355 11.4215 33.3078 11.4215 34.1801L11.4062 38.6474Z" fill="white"/>
<path d="M9.26711 11.595C9.24571 10.9317 9.60947 10.4501 10.0496 10.017C10.6302 9.46597 11.2698 8.97949 11.9571 8.56623C12.2705 8.37473 12.6431 8.30176 13.0065 8.36075C13.3698 8.41973 13.6995 8.6067 13.9348 8.88728C14.7664 9.75335 15.5107 10.6977 16.1571 11.707C16.4772 12.161 16.7189 12.6646 16.8724 13.1971C16.9337 13.405 16.9377 13.6253 16.8839 13.8351C16.8302 14.045 16.7206 14.2368 16.5667 14.3905C16.2141 14.7334 15.8382 15.0522 15.4418 15.3445C15.2421 15.5022 15.0936 15.7147 15.0147 15.9554C14.9359 16.1961 14.9303 16.4545 14.9986 16.6983C15.2434 17.8434 15.7982 18.9009 16.6034 19.7574C17.5819 20.9409 18.8425 21.8642 20.2715 22.4438C20.6227 22.6227 21.025 22.6772 21.4117 22.5983C21.6235 22.541 21.8117 22.4192 21.9497 22.25C22.1637 21.9804 22.396 21.72 22.5886 21.4322C22.8383 21.0733 23.2197 20.8253 23.6514 20.741C24.0831 20.6567 24.531 20.7428 24.8995 20.981C25.9357 21.5766 26.9139 22.2661 27.8218 23.0405C28.0358 23.2222 28.2589 23.3979 28.4729 23.5826C28.7261 23.7739 28.9089 24.0423 28.9934 24.3464C29.0779 24.6506 29.0593 24.9739 28.9406 25.2666C28.7517 25.7589 28.4764 26.2141 28.1275 26.6113C27.6938 27.2085 27.1414 27.7115 26.5043 28.0894C26.1997 28.2666 25.8575 28.3706 25.5051 28.3933C25.1526 28.4159 24.7997 28.3564 24.4746 28.2196C22.0015 27.233 19.6906 25.8866 17.6182 24.2247C15.5913 22.5714 13.8199 20.6326 12.3606 18.4701C11.1326 16.68 10.1557 14.7329 9.45663 12.6823C9.38219 12.4342 9.32097 12.1825 9.27322 11.9281C9.25964 11.8176 9.25759 11.7059 9.26711 11.595Z" fill="white"/>
<path d="M19.8207 8.37304C21.8899 8.41094 23.8801 9.1672 25.4442 10.51C27.0083 11.8527 28.0472 13.6968 28.3797 15.7207C28.5136 16.4566 28.5852 17.2022 28.5937 17.9498C28.5937 18.1255 28.5479 18.2527 28.3583 18.2709C28.1688 18.2891 28.1199 18.1285 28.1199 17.968C28.1483 16.4557 27.835 14.9562 27.2029 13.5794C26.6706 12.4481 25.882 11.4537 24.8985 10.6736C23.915 9.89353 22.7632 9.34878 21.5325 9.08176C20.8819 8.9325 20.2165 8.8553 19.5487 8.85158C19.4836 8.85269 19.4188 8.84453 19.3561 8.82735C19.3027 8.81244 19.2573 8.77758 19.2293 8.73012C19.2014 8.68266 19.1931 8.62631 19.2063 8.57293C19.2067 8.54762 19.2122 8.52263 19.2224 8.49943C19.2327 8.47622 19.2475 8.45527 19.266 8.4378C19.2844 8.42032 19.3063 8.40666 19.3301 8.39762C19.354 8.38859 19.3795 8.38435 19.405 8.38515C19.5426 8.36698 19.6832 8.37304 19.8207 8.37304Z" fill="white"/>
<path d="M25.7213 16.5868C25.711 15.7453 25.5019 14.918 25.1106 14.1711C24.7194 13.4242 24.1569 12.7786 23.4684 12.286C22.6648 11.7267 21.7306 11.3796 20.754 11.2774C20.5889 11.2562 20.4238 11.2471 20.2557 11.229C20.0876 11.2108 19.9867 11.1411 20.002 10.9715C20.0173 10.8019 20.1243 10.7413 20.3077 10.7534C23.016 10.917 25.3208 12.4344 26.03 15.2602C26.1597 15.805 26.2243 16.3631 26.2226 16.9229C26.2226 16.9744 26.2226 17.0259 26.2226 17.0744C26.2226 17.2258 26.1248 17.3258 25.975 17.3227C25.9418 17.3216 25.9091 17.3138 25.879 17.2998C25.849 17.2858 25.8221 17.2658 25.8001 17.2412C25.778 17.2165 25.7613 17.1877 25.7509 17.1564C25.7405 17.1251 25.7367 17.092 25.7396 17.0592C25.7151 16.9169 25.7213 16.7715 25.7213 16.5868Z" fill="white"/>
<path d="M20.9763 13.2124C22.4619 13.3123 23.4981 14.0332 23.7824 15.599C23.8169 15.7996 23.8414 16.0018 23.8558 16.2048C23.8558 16.3683 23.8191 16.5076 23.6387 16.5076C23.4584 16.5076 23.3973 16.3865 23.3911 16.2048C23.3895 15.6045 23.2028 15.0191 22.8562 14.5269C22.4919 14.081 21.969 13.7905 21.3951 13.7152C21.2667 13.6914 21.1371 13.6752 21.0069 13.6667C20.7929 13.6667 20.6737 13.5607 20.7012 13.3971C20.7287 13.2336 20.8571 13.2033 20.9763 13.2124Z" fill="white"/>
</g>
<defs>
<filter id="filter0_i_2593_7721" x="0" y="0" width="40" height="40.5" filterUnits="userSpaceOnUse" color-interpolation-filters="sRGB">
<feFlood flood-opacity="0" result="BackgroundImageFix"/>
<feBlend mode="normal" in="SourceGraphic" in2="BackgroundImageFix" result="shape"/>
<feColorMatrix in="SourceAlpha" type="matrix" values="0 0 0 0 0 0 0 0 0 0 0 0 0 0 0 0 0 0 127 0" result="hardAlpha"/>
<feOffset dy="0.5"/>
<feGaussianBlur stdDeviation="1.25"/>
<feComposite in2="hardAlpha" operator="arithmetic" k2="-1" k3="1"/>
<feColorMatrix type="matrix" values="0 0 0 0 0 0 0 0 0 0 0 0 0 0 0 0 0 0 0.1 0"/>
<feBlend mode="normal" in2="shape" result="effect1_innerShadow_2593_7721"/>
</filter>
</defs>
</svg>
