<svg width="24" height="24" fill="none" xmlns="http://www.w3.org/2000/svg"><path fill-rule="evenodd" clip-rule="evenodd" d="M19.634 4.535a10.361 10.361 0 00-7.377-3.058c-5.748 0-10.427 4.678-10.429 10.428 0 1.838.48 3.632 1.392 5.214l-1.022 3.733a1 1 0 001.218 1.231l3.853-1.01a10.42 10.42 0 004.984 1.27h.004c5.748 0 10.426-4.68 10.429-10.43a10.366 10.366 0 00-3.052-7.378zm-7.377 16.046h-.003a8.655 8.655 0 01-4.412-1.208l-.317-.188-3.28.86.875-3.198-.206-.328a8.647 8.647 0 01-1.325-4.613c.002-4.78 3.89-8.668 8.671-8.668a8.613 8.613 0 016.129 2.542 8.616 8.616 0 012.536 6.133c-.002 4.78-3.89 8.668-8.668 8.668z" fill="#3C4256"/><path fill-rule="evenodd" clip-rule="evenodd" d="M17.012 14.089c-.26-.13-1.542-.76-1.78-.848-.24-.087-.413-.13-.587.13-.174.261-.673.848-.825 1.022-.152.174-.304.196-.565.066-.26-.13-1.1-.406-2.095-1.294-.775-.69-1.298-1.544-1.45-1.805-.152-.26-.016-.402.114-.532.117-.117.26-.304.391-.456.13-.152.174-.261.26-.435.088-.174.044-.326-.021-.457-.065-.13-.586-1.413-.803-1.934-.212-.508-.427-.44-.587-.448a11.234 11.234 0 00-.5-.009.957.957 0 00-.694.326c-.239.261-.912.892-.912 2.174 0 1.283.934 2.522 1.064 2.696.13.174 1.837 2.806 4.451 3.934.622.269 1.107.43 1.486.55.624.198 1.192.17 1.641.103.5-.075 1.542-.63 1.76-1.24.216-.608.216-1.13.151-1.239-.065-.108-.239-.174-.5-.304z" fill="#3C4256"/></svg>