<?xml version="1.0" standalone="no"?>
<!DOCTYPE svg PUBLIC "-//W3C//DTD SVG 20010904//EN"
 "http://www.w3.org/TR/2001/REC-SVG-20010904/DTD/svg10.dtd">
<svg version="1.0" xmlns="http://www.w3.org/2000/svg"
 width="192.000000pt" height="192.000000pt" viewBox="0 0 192.000000 192.000000"
 preserveAspectRatio="xMidYMid meet">
<metadata>
Created by potrace 1.14, written by Peter Selinger 2001-2017
</metadata>
<g transform="translate(0.000000,192.000000) scale(0.100000,-0.100000)"
fill="#000000" stroke="none">
<path d="M963 1897 c-42 -23 -100 -119 -140 -232 -6 -16 -14 -39 -18 -50 -4
-11 -9 -31 -11 -44 -7 -54 -8 -54 -159 23 -80 41 -145 72 -145 70 0 -3 -11 3
-25 12 -14 9 -28 15 -30 12 -2 -2 12 -13 33 -23 53 -28 210 -122 260 -157 47
-33 45 -20 27 -153 -3 -22 -8 -53 -10 -69 -5 -40 -12 -44 -78 -51 -32 -3 -75
-8 -95 -12 -82 -14 -82 -14 -138 77 -56 91 -90 125 -116 115 -38 -15 -20 -89
43 -182 33 -47 34 -49 17 -51 -23 -1 -65 -12 -106 -26 -22 -8 -43 -12 -46 -9
-3 4 -6 1 -6 -5 0 -7 -8 -12 -18 -12 -24 0 -102 -50 -136 -86 -75 -81 12 -175
239 -260 11 -4 26 -8 33 -10 8 -1 21 -6 30 -10 20 -8 40 -14 65 -16 24 -3 23
-8 -26 -95 -80 -146 -103 -231 -85 -318 8 -34 65 -65 107 -58 20 3 44 7 53 8
10 0 21 4 24 8 4 4 14 7 21 7 20 0 150 62 208 99 41 26 50 29 57 16 5 -8 9
-18 9 -22 1 -5 7 -23 14 -40 8 -18 11 -33 8 -33 -3 0 0 -6 6 -13 6 -8 8 -17 4
-20 -3 -4 -1 -12 4 -19 6 -7 14 -28 18 -46 3 -17 11 -32 16 -32 6 0 8 8 5 18
-10 35 -38 158 -42 182 -3 14 -7 32 -9 40 -6 21 -1 27 93 99 78 59 85 63 108
51 13 -8 24 -17 24 -22 0 -4 4 -8 9 -8 6 0 135 -81 149 -95 1 -1 -9 -49 -23
-106 -13 -57 -23 -113 -20 -124 2 -11 4 -23 4 -27 1 -5 12 -8 25 -8 26 0 64
43 71 81 2 11 7 30 11 42 4 12 8 33 8 47 2 31 16 56 25 42 9 -15 120 -68 176
-85 28 -8 75 -13 105 -12 45 2 58 7 78 31 21 24 23 34 18 83 -8 80 -17 121
-27 121 -5 0 -9 8 -9 18 0 17 -41 104 -60 127 -5 6 -7 15 -3 18 3 4 1 7 -5 7
-7 0 -12 4 -12 10 0 5 26 17 58 27 68 20 58 18 105 27 20 5 40 12 43 17 3 5 9
7 14 4 11 -7 60 16 60 28 0 5 -5 5 -13 -1 -7 -6 -28 -14 -47 -17 -19 -3 -43
-8 -52 -11 -9 -3 -27 -7 -40 -9 -13 -3 -44 -10 -71 -16 -52 -12 -97 -6 -97 14
0 6 -10 24 -23 39 -12 14 -29 36 -37 48 -8 12 -21 28 -27 36 -7 7 -13 17 -13
23 0 6 -3 11 -8 11 -4 0 -13 9 -20 20 -11 18 -6 29 43 100 l56 79 39 -14 c22
-8 40 -12 40 -10 0 2 15 -2 34 -10 57 -24 130 -29 145 -11 33 40 -41 89 -169
111 -19 3 -36 8 -38 10 -7 6 30 95 39 95 5 0 9 6 9 13 0 7 21 52 46 101 25 48
44 89 42 92 -2 2 -28 -40 -58 -92 -123 -214 -115 -205 -181 -199 -30 3 -76 7
-102 9 -51 4 -60 8 -63 31 -13 91 -19 123 -34 190 -5 22 -8 40 -7 41 1 1 31
19 67 40 67 38 120 88 120 111 0 42 -92 26 -175 -30 l-39 -27 -21 68 c-34 108
-78 193 -112 215 -7 4 -19 14 -27 22 -18 18 -63 19 -93 2z m107 -42 c30 -27
78 -132 98 -215 l19 -75 -40 -35 c-23 -19 -50 -44 -62 -55 -11 -11 -40 -37
-64 -58 l-43 -38 -19 22 c-10 12 -19 19 -19 16 0 -4 -8 0 -17 8 -10 8 -40 30
-68 47 -36 24 -49 39 -48 56 0 12 2 23 3 25 2 3 7 24 15 62 3 16 10 34 15 40
4 5 9 15 10 20 1 6 6 20 11 33 5 13 9 27 9 31 0 5 7 14 15 21 8 7 13 16 10 19
-4 7 38 54 77 87 19 16 75 10 98 -11z m141 -402 c0 -10 2 -26 4 -35 9 -46 17
-107 18 -138 1 -37 1 -37 -83 -31 -8 1 -38 22 -67 49 -58 53 -62 43 43 121 76
56 84 59 85 34z m-343 -40 c37 -25 70 -49 75 -53 4 -3 -13 -28 -38 -55 -34
-36 -56 -50 -86 -55 -31 -6 -42 -4 -46 6 -5 13 2 101 12 149 2 11 4 28 4 38 1
9 4 17 7 17 3 0 35 -21 72 -47z m172 -131 l32 -28 -71 0 -70 0 27 28 c34 35
42 35 82 0z m-250 -92 c0 -4 -7 -13 -15 -20 -12 -10 -15 -9 -15 7 0 11 7 20
15 20 8 0 15 -4 15 -7z m407 -44 l54 -51 3 -108 3 -108 -86 -88 -86 -87 -55 1
c-30 1 -64 3 -75 4 -11 0 -59 38 -106 84 l-86 82 -2 100 -1 100 57 61 57 62
134 -1 134 -1 55 -50z m-465 7 c-3 -28 -16 -52 -52 -92 l-47 -54 -58 76 c-31
42 -54 80 -51 85 3 5 19 9 37 10 17 0 32 2 34 4 2 2 34 4 72 6 l69 3 -4 -38z
m509 30 c0 -5 2 -16 4 -25 4 -23 3 -23 -25 7 l-23 25 21 0 c12 0 22 -3 23 -7z
m139 -17 c50 -8 81 -19 74 -25 -11 -8 -54 -68 -54 -76 0 -3 -9 -16 -20 -28
l-20 -21 -27 26 c-20 21 -27 39 -31 83 l-5 56 34 -6 c19 -3 41 -7 49 -9z
m-832 -148 l52 -57 -64 -98 c-62 -94 -66 -98 -98 -95 -77 8 -298 98 -298 123
0 5 -7 9 -15 9 -8 0 -15 7 -15 15 0 8 -4 15 -9 15 -12 0 -31 51 -28 72 7 41
108 110 179 122 15 3 32 7 37 10 4 3 33 8 62 12 30 3 56 8 59 11 4 4 18 -10
138 -139z m178 -49 l-1 -61 -27 32 -27 33 27 28 c15 15 28 28 28 29 1 0 1 -27
0 -61z m604 41 c8 -15 7 -26 -2 -42 -12 -23 -12 -23 -18 7 -6 28 -3 55 6 55 2
0 8 -9 14 -20z m139 -170 l63 -84 -26 -7 c-15 -4 -54 -11 -86 -14 -33 -4 -71
-9 -85 -10 l-25 -3 1 83 c1 77 3 86 31 120 36 43 27 48 127 -85z m-784 34 c39
-41 45 -52 45 -90 0 -24 -1 -47 -2 -51 -4 -11 -64 -11 -118 -1 -25 5 -56 11
-70 13 -14 1 -24 8 -22 15 2 11 41 69 53 80 3 3 18 22 33 43 16 20 30 37 32
37 2 0 24 -21 49 -46z m571 -104 c-2 -49 -15 -60 -76 -60 l-44 0 54 54 c30 29
58 52 61 50 3 -2 5 -22 5 -44z m-454 -7 c8 -10 26 -26 39 -35 l23 -18 -42 0
c-23 0 -43 3 -43 8 -5 25 -4 62 1 62 3 0 13 -8 22 -17z m-232 -46 c19 -7 85
-17 129 -20 39 -2 35 7 66 -155 20 -104 22 -99 -55 -139 -19 -10 -42 -23 -50
-29 -16 -12 -93 -43 -125 -51 -153 -37 -201 -12 -193 100 1 20 6 37 10 37 4 0
7 3 7 8 -1 4 0 10 1 15 1 4 3 10 4 15 1 4 7 17 14 30 7 12 10 22 6 22 -4 0 0
8 8 18 8 9 29 43 47 75 50 88 66 97 131 74z m1014 -39 c6 -4 7 -8 3 -8 -4 0 4
-21 18 -46 26 -46 60 -162 59 -199 -1 -49 -15 -77 -46 -89 -30 -13 -75 -12
-108 1 -8 3 -19 7 -25 7 -9 1 -91 41 -141 70 -47 26 -53 36 -48 79 3 23 6 72
7 109 2 37 5 70 9 73 3 3 32 10 64 15 33 6 70 12 84 15 14 4 36 8 50 11 13 3
26 7 29 10 2 2 11 -6 20 -19 8 -12 20 -25 25 -29z m-724 -1 c51 -4 154 -77
109 -77 -5 0 -8 -4 -4 -9 3 -5 -3 -12 -12 -15 -10 -3 -34 -21 -54 -38 -40 -37
-79 -62 -85 -55 -4 4 -8 25 -19 117 -3 30 -8 60 -10 67 -4 13 14 22 30 16 6
-2 26 -4 45 -6z m385 -35 c-2 -15 -6 -49 -10 -77 -4 -27 -11 -54 -15 -59 -9
-9 -48 12 -84 46 -11 10 -35 28 -53 41 -38 25 -39 31 -15 55 12 12 36 18 82
20 35 2 66 5 68 7 12 12 30 -10 27 -33z m-207 14 c-7 -7 -19 -11 -25 -9 -22 9
-14 23 12 23 21 0 24 -2 13 -14z"/>
<path d="M933 1163 c-77 -26 -143 -125 -136 -203 10 -107 112 -201 209 -191 7
1 11 21 10 53 -2 45 2 56 25 78 33 31 49 104 25 113 -9 4 -16 15 -16 26 0 36
-29 35 -43 -1 -8 -23 -29 -23 -25 -1 4 24 -30 29 -39 6 -3 -10 -13 -22 -20
-26 -10 -6 -12 -19 -7 -45 9 -49 20 -69 42 -76 14 -5 18 -16 18 -46 0 -22 -4
-40 -9 -40 -12 0 -69 30 -82 44 -49 48 -59 128 -26 193 49 97 177 118 261 43
18 -16 30 -30 27 -30 -4 0 -1 -12 7 -27 30 -59 4 -155 -53 -195 -20 -14 -24
-48 -6 -48 16 0 74 58 92 93 8 16 16 49 18 73 12 147 -131 256 -272 207z"/>
</g>
</svg>
