<?xml version="1.0" standalone="no"?>
<!DOCTYPE svg PUBLIC "-//W3C//DTD SVG 20010904//EN"
 "http://www.w3.org/TR/2001/REC-SVG-20010904/DTD/svg10.dtd">
<svg version="1.0" xmlns="http://www.w3.org/2000/svg"
 width="816.000000pt" height="816.000000pt" viewBox="0 0 816.000000 816.000000"
 preserveAspectRatio="xMidYMid meet">
<metadata>
Created by potrace 1.14, written by Peter Selinger 2001-2017
</metadata>
<g transform="translate(0.000000,816.000000) scale(0.100000,-0.100000)"
fill="#000000" stroke="none">
<path d="M6355 7273 c-138 -32 -540 -124 -557 -127 -13 -2 -54 -12 -93 -21
-38 -9 -78 -18 -88 -21 -10 -2 -26 -5 -35 -8 -9 -3 -28 -7 -42 -10 -14 -3 -34
-7 -45 -10 -11 -2 -51 -12 -90 -20 -38 -9 -128 -30 -200 -46 -163 -38 -166
-39 -190 -44 -38 -8 -201 -45 -330 -75 -71 -17 -141 -32 -155 -35 -14 -3 -51
-12 -83 -20 -31 -8 -60 -15 -62 -15 -3 -1 -6 -1 -7 -2 -5 -1 -33 -7 -58 -12
-14 -3 -43 -10 -65 -15 -22 -6 -51 -13 -65 -16 -14 -2 -77 -17 -140 -31 -102
-24 -137 -27 -305 -29 l-190 -1 -60 -46 c-61 -47 -247 -198 -275 -222 -8 -7
-37 -31 -65 -53 -27 -21 -52 -41 -55 -44 -3 -3 -39 -32 -80 -65 -41 -33 -84
-68 -95 -77 -11 -9 -145 -119 -299 -243 -153 -124 -284 -231 -291 -238 -7 -7
-22 -19 -35 -27 -12 -8 -34 -26 -50 -40 -16 -14 -34 -30 -42 -35 -23 -19 -162
-129 -183 -147 -61 -50 -217 -177 -250 -203 -21 -16 -43 -35 -49 -40 -6 -6
-69 -58 -141 -115 -71 -58 -132 -107 -135 -110 -3 -3 -50 -41 -105 -85 -55
-43 -140 -112 -190 -153 -49 -41 -99 -82 -110 -91 -25 -20 -113 -91 -139 -111
-10 -8 -35 -30 -55 -47 -20 -18 -39 -33 -42 -33 -3 0 -17 -10 -31 -22 -13 -13
-40 -35 -59 -51 -69 -55 -96 -77 -190 -154 -52 -43 -112 -91 -133 -108 -39
-31 -57 -45 -98 -80 -20 -17 -39 -20 -158 -20 l-135 -1 0 -119 0 -120 4078 0
4077 0 0 120 0 120 -2156 0 c-1186 0 -2157 3 -2160 6 -5 8 -30 127 -38 183 -4
21 -8 42 -11 46 -3 4 -7 25 -10 45 -2 21 -7 45 -9 54 -3 9 -7 33 -10 53 -2 21
-7 41 -10 46 -2 4 -7 26 -10 47 -3 22 -26 139 -50 260 -25 121 -48 231 -50
245 -3 14 -23 117 -45 229 -23 112 -43 216 -46 230 -6 33 -12 59 -19 91 -3 14
-8 36 -10 50 -3 14 -10 50 -16 80 -13 64 -18 91 -24 125 -3 14 -7 34 -11 45
-6 19 5 34 126 165 31 33 67 72 80 86 13 15 62 68 109 119 47 51 96 105 110
120 17 18 49 35 95 48 59 17 429 116 475 127 8 2 81 22 161 44 190 53 587 160
619 167 14 3 50 12 80 21 30 9 60 18 65 19 6 1 30 7 55 14 25 7 52 14 60 16
12 2 392 106 435 118 6 2 24 6 40 10 17 5 61 17 99 28 38 11 76 21 85 23 51
10 242 65 260 74 11 6 24 23 27 36 8 31 19 32 38 3 43 -68 16 -170 -71 -263
-36 -40 -118 -105 -131 -105 -6 0 -12 -4 -14 -9 -4 -11 -156 -82 -233 -109
-60 -21 -251 -82 -270 -87 -5 -1 -23 -7 -40 -14 -16 -6 -41 -16 -55 -21 -14
-5 -38 -15 -55 -21 -16 -7 -32 -13 -35 -13 -45 -7 -510 -239 -518 -258 -2 -5
-8 -8 -13 -8 -5 0 -60 -34 -122 -75 -281 -186 -504 -405 -610 -597 -33 -59
-81 -181 -91 -231 -28 -136 -33 -178 -31 -284 5 -257 88 -424 280 -565 158
-116 279 -160 435 -158 85 1 175 6 175 10 0 1 15 4 34 7 64 9 205 54 280 90
96 45 135 73 232 166 93 88 174 260 198 420 9 57 13 94 26 227 6 63 14 170 20
270 12 205 24 315 36 348 5 12 5 22 1 22 -4 0 -2 4 3 8 6 4 15 16 21 27 23 42
166 70 268 53 52 -9 56 -12 50 -32 -27 -80 9 -193 82 -262 92 -86 233 -94 343
-19 30 20 46 26 49 17 2 -6 8 -12 13 -12 5 0 46 -23 92 -52 296 -185 495 -393
513 -536 9 -74 -7 -116 -66 -173 -86 -81 -219 -131 -333 -125 -66 4 -173 31
-182 47 -4 5 -13 9 -21 9 -14 0 -24 7 -59 37 -7 7 -17 13 -22 13 -4 0 -21 14
-37 30 -16 17 -31 28 -33 27 -2 -2 8 -30 23 -63 124 -286 295 -460 484 -494
80 -14 157 -7 259 25 142 45 252 113 369 228 166 162 225 342 166 504 -13 36
-28 71 -33 77 -5 6 -10 16 -10 21 -2 28 -107 178 -168 241 -111 115 -234 195
-405 263 -69 27 -203 66 -268 77 -14 3 -32 7 -41 10 -9 2 -34 7 -55 9 -22 3
-52 8 -69 12 -16 4 -33 7 -37 7 -12 1 -16 11 -22 53 -8 60 -29 105 -71 152
-102 113 -289 114 -391 2 -21 -22 -40 -38 -43 -37 -11 7 -117 19 -163 19 -84
-1 -190 -34 -225 -69 -22 -22 -54 -102 -56 -140 -1 -18 -4 -34 -7 -34 -3 0 -5
-12 -6 -27 -1 -35 -13 -219 -19 -293 -2 -30 -7 -91 -11 -135 -3 -44 -7 -98 -9
-120 -8 -96 -21 -200 -31 -247 -62 -285 -253 -473 -562 -554 -7 -2 -13 -4 -15
-5 -21 -10 -168 -30 -247 -33 -149 -6 -296 50 -453 174 -150 118 -218 287
-212 523 3 136 6 153 41 269 29 100 54 153 111 238 86 131 236 281 408 408 39
29 75 56 80 61 20 15 151 99 217 138 62 37 270 142 378 191 91 41 350 138 391
147 9 2 39 11 65 20 55 19 57 20 102 30 17 4 32 11 32 15 0 3 6 7 13 7 23 0
181 79 244 122 81 55 165 147 197 215 58 122 25 245 -76 287 -15 6 -28 16 -28
22 0 27 -46 41 -95 30z m-3086 -970 c-8 -9 -50 -51 -93 -92 -44 -42 -98 -94
-121 -116 -23 -22 -113 -107 -199 -190 -87 -82 -184 -175 -215 -205 -58 -55
-372 -355 -461 -440 -148 -141 -363 -347 -443 -423 -51 -49 -157 -150 -236
-225 -79 -76 -179 -171 -221 -212 -43 -41 -139 -133 -214 -203 -74 -71 -137
-132 -141 -135 -5 -6 -375 -11 -375 -6 0 1 51 44 113 95 61 51 114 95 117 98
3 3 41 35 85 71 44 35 82 67 85 70 3 3 57 48 120 100 63 52 117 97 120 100 3
4 15 13 26 21 12 8 45 35 75 61 30 25 113 94 184 153 72 59 141 117 155 129
14 11 75 61 135 110 61 49 117 96 125 105 8 9 33 29 55 45 22 17 42 33 45 36
3 3 57 49 120 101 147 120 158 130 186 154 12 12 37 32 55 45 31 24 152 124
175 145 6 6 25 21 43 35 18 14 42 34 55 45 12 11 43 36 67 56 216 178 305 253
307 260 2 5 8 9 13 9 5 0 17 8 27 18 11 9 36 31 58 49 21 17 71 58 109 91 74
64 86 72 64 45z m3351 -341 c86 -86 29 -232 -90 -232 -83 0 -141 65 -135 150
3 38 10 51 45 82 39 35 45 37 96 33 44 -3 60 -10 84 -33z m-3249 -199 c0 -16
2 -35 3 -43 4 -19 16 -141 21 -205 4 -56 13 -149 20 -210 2 -22 7 -71 10 -110
3 -38 8 -83 10 -100 6 -46 24 -236 40 -415 3 -30 7 -75 10 -100 5 -43 7 -62
20 -215 4 -38 8 -86 10 -105 2 -19 7 -69 11 -110 3 -41 7 -79 8 -85 2 -13
-843 -14 -853 0 -4 5 -19 30 -32 55 -13 25 -28 49 -32 55 -9 12 -227 386 -227
391 0 1 -14 25 -31 53 l-31 50 43 47 c24 26 61 66 82 88 22 23 70 76 109 118
38 42 84 92 101 111 76 81 223 242 240 261 10 11 39 43 65 72 26 28 90 97 142
154 52 57 112 121 133 144 21 23 55 60 75 83 20 23 40 43 45 43 4 0 7 -12 8
-27z"/>
<path d="M6775 3233 c-216 -40 -336 -109 -449 -258 -36 -46 -98 -171 -101
-200 0 -5 -3 -14 -7 -20 -3 -5 -9 -23 -12 -40 -3 -16 -9 -41 -12 -55 -3 -14
-8 -86 -9 -160 -5 -186 17 -303 82 -435 112 -228 318 -353 589 -360 343 -8
579 152 684 464 21 64 25 80 37 176 11 85 6 259 -10 335 -59 282 -266 497
-527 545 -41 7 -236 14 -265 8z m210 -238 c65 -12 161 -64 204 -110 86 -92
133 -232 134 -405 1 -155 -26 -270 -84 -361 -30 -47 -101 -119 -117 -119 -5 0
-15 -6 -21 -14 -30 -36 -211 -60 -316 -42 -64 11 -156 60 -205 108 -60 60
-114 170 -127 258 -8 58 -15 126 -15 135 1 6 4 46 6 90 5 73 12 130 16 130 1
0 3 7 5 15 18 80 76 181 133 230 45 39 123 77 177 86 22 3 41 7 43 8 5 5 128
-1 167 -9z"/>
<path d="M490 3202 c0 -5 9 -35 19 -68 10 -32 38 -120 60 -194 23 -74 45 -142
48 -150 3 -8 7 -20 8 -26 2 -7 17 -56 35 -110 18 -55 33 -103 34 -109 3 -14
84 -270 101 -320 7 -22 32 -101 55 -175 23 -74 55 -176 71 -226 l29 -90 175 0
c103 1 177 5 182 11 10 11 9 10 78 230 65 206 108 342 145 460 18 55 34 107
36 115 1 8 26 87 54 175 29 88 53 165 54 170 2 6 13 44 26 85 14 41 25 77 25
80 1 3 4 12 8 20 11 30 37 114 37 121 0 4 -57 6 -126 6 l-126 -2 -20 -60 c-10
-33 -20 -67 -23 -75 -2 -8 -26 -85 -53 -170 -58 -178 -136 -423 -137 -430 -1
-3 -24 -77 -52 -165 -29 -88 -57 -180 -64 -205 -7 -25 -16 -49 -19 -55 -4 -5
-11 -23 -15 -40 -6 -27 -10 -20 -41 75 -18 58 -44 134 -56 170 -12 35 -22 71
-23 80 -1 8 -9 35 -18 60 -9 25 -38 117 -66 205 -27 88 -77 248 -111 355 -34
107 -66 209 -71 227 l-9 31 -125 1 c-69 1 -125 -2 -125 -7z"/>
<path d="M1949 3198 c-1 -7 -2 -340 -3 -739 l-1 -727 123 1 122 1 0 51 c1 63
1 1372 0 1402 0 21 -4 21 -120 22 -90 1 -120 -2 -121 -11z"/>
<path d="M2499 3192 c-1 -22 -1 -1422 0 -1443 1 -15 16 -17 119 -16 64 0 119
4 122 8 3 4 5 120 4 258 l-1 251 211 0 c239 1 263 2 326 20 201 56 314 221
313 460 0 252 -124 418 -345 463 -48 10 -159 14 -407 15 -313 1 -341 -1 -342
-16z m721 -239 c77 -34 119 -104 125 -205 8 -144 -60 -241 -187 -263 -26 -5
-302 -9 -393 -6 -20 1 -21 6 -20 244 1 133 2 245 3 248 1 3 98 5 215 4 190 -1
217 -4 257 -22z"/>
<path d="M3801 3192 c-1 -9 -1 -35 0 -57 1 -22 1 -47 0 -55 0 -8 0 -40 0 -70
1 -30 1 -61 0 -67 -1 -18 -3 -218 -2 -288 0 -5 0 -53 0 -105 0 -132 0 -123 0
-250 0 -63 0 -119 0 -125 0 -5 0 -55 0 -110 0 -55 1 -113 1 -130 1 -16 2 -68
3 -115 l2 -85 473 0 473 -1 -3 116 -3 115 -349 0 -350 0 0 208 c-1 200 0 207
19 208 11 0 142 1 290 1 l271 0 -1 116 0 116 -290 0 -289 1 -1 160 c0 88 1
169 3 181 4 20 7 20 340 19 185 0 343 1 350 3 9 3 12 35 12 117 l0 112 -474 1
c-442 1 -475 0 -475 -16z"/>
<path d="M4864 3198 c3 -7 18 -56 34 -108 17 -52 85 -270 152 -483 67 -214
123 -394 124 -400 1 -7 4 -16 8 -22 3 -5 13 -37 22 -70 9 -33 20 -67 23 -75 3
-8 7 -20 8 -25 3 -12 54 -173 62 -195 3 -8 8 -23 10 -33 10 -54 9 -53 199 -53
l178 1 32 100 c17 55 48 154 69 220 20 66 39 127 42 135 4 8 7 17 8 20 0 3 4
14 7 25 52 164 82 261 83 265 1 7 64 204 87 275 11 33 24 74 28 90 4 17 22 75
40 130 17 55 33 107 35 115 2 8 8 28 14 43 21 55 21 55 -111 54 l-123 -2 -17
-50 c-9 -27 -49 -151 -88 -275 -210 -659 -282 -885 -286 -889 -6 -7 -14 5 -18
26 -4 18 -29 100 -158 508 -28 88 -56 180 -63 205 -8 25 -30 95 -49 155 -20
61 -38 120 -40 132 -3 12 -9 31 -16 42 -6 12 -9 21 -7 21 3 0 -6 28 -18 63
l-23 62 -126 3 c-98 2 -125 0 -122 -10z"/>
<path d="M90 1122 c0 -4 -20 -6 -45 -4 l-45 4 0 -121 0 -121 4080 0 4080 0 0
119 0 119 -42 1 c-65 2 -70 2 -118 1 -25 0 -52 0 -60 0 -8 0 -35 0 -60 0 -25
0 -52 0 -60 0 -8 0 -35 0 -60 0 -25 0 -52 0 -60 0 -8 0 -35 0 -60 0 -25 0 -52
0 -60 0 -8 0 -35 0 -60 0 -25 0 -52 0 -60 0 -8 0 -35 0 -60 0 -25 0 -52 0 -60
0 -8 0 -35 0 -60 0 -25 0 -52 0 -60 0 -8 0 -35 0 -60 0 -25 0 -67 0 -95 0 -27
1 -54 1 -60 0 -13 -2 -129 -1 -141 1 -5 1 -13 0 -19 -1 -12 -2 -128 -2 -141 1
-5 1 -13 0 -19 -1 -12 -2 -128 -2 -141 1 -5 1 -11 1 -14 0 -4 -2 -143 -2 -300
-2 -25 0 -52 0 -60 0 -8 0 -35 0 -60 0 -25 0 -52 0 -60 0 -8 0 -35 0 -60 0
-25 0 -52 0 -60 0 -8 0 -35 0 -60 0 -25 1 -66 0 -93 -1 -26 -2 -47 1 -47 5 0
5 -5 5 -11 1 -14 -8 -124 -8 -138 0 -6 4 -11 4 -11 -1 0 -9 -82 -8 -105 1 -8
3 -15 2 -15 -2 0 -8 -83 -7 -105 2 -8 3 -15 2 -15 -2 0 -8 -83 -7 -105 2 -8 3
-15 2 -15 -2 0 -4 -48 -6 -108 -5 -110 2 -185 3 -212 2 -8 0 -35 0 -60 0 -25
0 -52 0 -60 0 -8 0 -35 0 -60 0 -25 0 -52 0 -60 0 -8 0 -35 0 -60 0 -25 1 -66
0 -93 -1 -26 -2 -47 1 -47 5 0 5 -5 5 -11 1 -14 -8 -124 -8 -138 0 -6 4 -11 4
-11 -1 0 -9 -82 -8 -105 1 -8 3 -15 2 -15 -2 0 -8 -83 -7 -105 2 -8 3 -15 2
-15 -2 0 -8 -83 -7 -105 2 -8 3 -15 2 -15 -2 0 -4 -27 -5 -60 -2 -34 3 -63 4
-65 1 -5 -4 -119 -4 -141 0 -5 1 -13 0 -19 -1 -12 -2 -128 -2 -141 1 -5 1 -13
0 -19 -1 -12 -2 -128 -2 -141 1 -5 1 -11 1 -14 0 -3 -1 -61 -2 -130 -1 -161 1
-148 1 -200 0 -25 0 -52 0 -60 0 -8 0 -35 0 -60 0 -25 0 -52 0 -60 0 -8 0 -35
0 -60 0 -25 0 -52 0 -60 0 -8 0 -35 0 -60 0 -25 0 -52 0 -60 0 -8 0 -35 0 -60
0 -25 0 -52 0 -60 0 -8 0 -35 0 -60 0 -25 0 -52 0 -60 0 -8 0 -35 0 -60 0 -25
0 -52 0 -60 0 -8 0 -35 0 -60 0 -25 0 -52 0 -60 0 -8 0 -35 0 -60 0 -25 0 -67
0 -95 0 -27 1 -54 1 -60 0 -13 -2 -129 -1 -141 1 -5 1 -13 0 -19 -1 -12 -2
-128 -2 -141 1 -5 1 -13 0 -19 -1 -12 -2 -128 -2 -141 1 -5 1 -11 1 -14 0 -4
-2 -143 -2 -300 -2 -25 0 -52 0 -60 0 -8 0 -35 0 -60 0 -25 0 -52 0 -60 0 -8
0 -35 0 -60 0 -25 0 -52 0 -60 0 -8 0 -35 0 -60 0 -25 1 -66 0 -93 -1 -26 -2
-47 1 -47 5 0 5 -5 5 -11 1 -6 -3 -37 -6 -69 -6 -32 0 -63 3 -69 6 -6 4 -11 4
-11 -1 0 -9 -82 -8 -105 1 -8 3 -15 2 -15 -2 0 -8 -83 -7 -105 2 -8 3 -15 2
-15 -2 0 -8 -83 -7 -105 2 -8 3 -15 2 -15 -2z"/>
</g>
</svg>
