<svg width="102" height="80" viewBox="0 0 102 80" fill="none" xmlns="http://www.w3.org/2000/svg">
<path d="M86.0232 69.717C84.1872 69.717 82.6147 69.3159 81.3057 68.5137C79.9967 67.703 78.9895 66.5766 78.284 65.1344C77.587 63.6922 77.2385 62.0196 77.2385 60.1166C77.2385 58.2136 77.587 56.541 78.284 55.0988C78.9895 53.6566 79.9967 52.5345 81.3057 51.7323C82.6147 50.9216 84.1872 50.5162 86.0232 50.5162C87.8592 50.5162 89.4317 50.9216 90.7407 51.7323C92.0582 52.5345 93.0655 53.6566 93.7625 55.0988C94.468 56.541 94.8207 58.2136 94.8207 60.1166C94.8207 62.0196 94.468 63.6922 93.7625 65.1344C93.0655 66.5766 92.0582 67.703 90.7407 68.5137C89.4317 69.3159 87.8592 69.717 86.0232 69.717ZM86.0232 66.8113C87.2557 66.8198 88.28 66.5467 89.096 65.992C89.9205 65.4373 90.5367 64.6565 90.9447 63.6495C91.3612 62.6426 91.5695 61.4649 91.5695 60.1166C91.5695 58.7683 91.3612 57.5992 90.9447 56.6093C90.5367 55.6108 89.9205 54.8343 89.096 54.2796C88.28 53.7249 87.2557 53.439 86.0232 53.422C84.7907 53.4134 83.7665 53.6865 82.9505 54.2412C82.1345 54.7959 81.5182 55.5767 81.1017 56.5837C80.6937 57.5906 80.4897 58.7683 80.4897 60.1166C80.4897 61.4649 80.6937 62.6383 81.1017 63.6367C81.5097 64.6266 82.1217 65.3989 82.9377 65.9536C83.7622 66.5083 84.7907 66.7942 86.0232 66.8113Z" fill="white"/>
<path d="M66.5516 69.3329L60.7631 50.9003H63.9251L68.7701 66.3376L73.6788 50.9003H76.8408L71.0523 69.3329H66.5516Z" fill="white"/>
<path d="M47.504 69.3329V50.9003H59.3615V53.7932H50.5768V58.3373H57.8315V61.2302H50.5768V66.44H59.3615V69.3329H47.504Z" fill="white"/>
<path d="M31.2179 69.3329V50.9003H38.8041C38.9826 50.9003 39.2121 50.9088 39.4926 50.9259C39.7731 50.9344 40.0324 50.96 40.2704 51.0027C41.3329 51.1648 42.2084 51.5189 42.8969 52.0651C43.5939 52.6113 44.1081 53.3025 44.4396 54.1388C44.7796 54.9665 44.9496 55.8882 44.9496 56.9037C44.9496 57.9107 44.7796 58.8323 44.4396 59.6686C44.0996 60.4963 43.5811 61.1833 42.8841 61.7295C42.1956 62.2756 41.3244 62.6298 40.2704 62.7919C40.0324 62.826 39.7689 62.8516 39.4799 62.8687C39.1994 62.8858 38.9741 62.8943 38.8041 62.8943H34.2906V69.3329H31.2179ZM34.2906 60.0142H38.6766C38.8466 60.0142 39.0379 60.0057 39.2504 59.9886C39.4629 59.9715 39.6584 59.9374 39.8369 59.8862C40.3469 59.7582 40.7464 59.532 41.0354 59.2078C41.3329 58.8835 41.5411 58.5165 41.6601 58.1069C41.7876 57.6973 41.8514 57.2962 41.8514 56.9037C41.8514 56.5111 41.7876 56.1101 41.6601 55.7004C41.5411 55.2823 41.3329 54.9111 41.0354 54.5868C40.7464 54.2625 40.3469 54.0364 39.8369 53.9084C39.6584 53.8572 39.4629 53.8273 39.2504 53.8188C39.0379 53.8017 38.8466 53.7932 38.6766 53.7932H34.2906V60.0142Z" fill="white"/>
<path d="M24.3259 69.3329V50.9003H27.3987V69.3329H24.3259Z" fill="white"/>
<path d="M11.866 69.3329L6.07751 50.9003H9.23952L14.0845 66.3376L18.9933 50.9003H22.1553L16.3668 69.3329H11.866Z" fill="white"/>
<path fill-rule="evenodd" clip-rule="evenodd" d="M49.0875 7.0373H46.325H44.7131C44.5186 7.0373 44.33 7.10426 44.1787 7.22699L3.39999 40.3185H6.79999L41.9099 11.2537L11.475 40.3185H33.575L29.1125 32.6382L42.0901 18.5004L44.2 40.3185H48.025L43.3953 17.0785L49.0875 10.8774L80.1204 2.51349C80.4918 2.41338 80.75 2.07539 80.75 1.68931V0.853728C80.75 0.305801 80.243 -0.100149 79.7109 0.0217476L49.0875 7.0373Z" fill="#F79817"/>
<path fill-rule="evenodd" clip-rule="evenodd" d="M80.1146 1.0213C80.1379 0.786816 80.3462 0.615741 80.5798 0.639189C81.2838 0.709866 81.8438 1.17169 82.116 1.83021C82.387 2.48557 82.3722 3.31992 82.0015 4.19146C81.2605 5.9331 79.0986 7.85675 74.7074 9.15338C69.3314 10.7408 64.6994 13.0675 61.1802 15.5724C57.6491 18.0857 55.2804 20.7479 54.3684 22.9861C52.4976 27.5772 53.3794 32.0338 55.9341 34.0068C57.3009 35.0623 58.3193 35.6691 59.2891 35.9936C60.2507 36.3154 61.1969 36.3705 62.4397 36.2665C63.6944 36.1616 65.9552 35.8482 67.9972 34.6438C70.0174 33.4522 71.8437 31.3787 72.2526 27.6843C72.5277 25.1982 72.6504 23.2398 72.7489 21.6667C72.8033 20.7982 72.8503 20.0471 72.9116 19.3897C72.9952 18.4926 73.1068 17.7661 73.32 17.2167C73.5419 16.6451 73.8877 16.2321 74.4383 16.0248C76.2507 15.3425 77.4087 15.5743 78.4958 15.7926C78.5797 15.8094 78.6528 15.85 78.7096 15.9059C79.3094 14.9364 80.3796 14.2909 81.6 14.2909C83.4778 14.2909 85 15.8192 85 17.7044C85 17.7845 84.9972 17.864 84.9918 17.9427C93.7645 19.0401 97.1255 22.6439 98.8125 26.878C100.512 31.1449 94.5625 36.4784 89.675 36.4784C85.765 36.4784 83.2292 31.6427 82.45 29.2248C83.725 30.7182 87.21 32.9796 90.95 30.0782C94.6623 27.1982 87.8645 22.2584 84.023 20.099C83.4063 20.7279 82.5485 21.1178 81.6 21.1178C79.7222 21.1178 78.2 19.5896 78.2 17.7044C78.2 17.3311 78.2597 16.9718 78.37 16.6356C78.3564 16.6342 78.3428 16.6321 78.3291 16.6294L78.3268 16.6289C77.2898 16.4207 76.3231 16.2266 74.7367 16.8238C74.4669 16.9254 74.2697 17.1202 74.112 17.5265C73.9457 17.9551 73.8411 18.5767 73.7579 19.4692C73.7016 20.0728 73.6557 20.8013 73.6018 21.6563V21.6563C73.5012 23.2526 73.3728 25.2898 73.0974 27.7785C72.6563 31.7644 70.6575 34.0644 68.4278 35.3796C66.2198 36.6819 63.8056 37.0086 62.5103 37.1169C61.203 37.2263 60.1305 37.1747 59.0203 36.8032C57.9182 36.4344 56.8116 35.7611 55.4159 34.6832C52.4456 32.3893 51.6274 27.4589 53.5816 22.663C54.5821 20.2077 57.1009 17.4298 60.6886 14.8762C64.2881 12.3142 69.0061 9.94738 74.4676 8.33469C78.7464 7.07123 80.622 5.26141 81.2198 3.85627C81.5184 3.15441 81.4983 2.56204 81.331 2.15737C81.165 1.75585 80.8537 1.52431 80.4952 1.48832C80.2616 1.46487 80.0912 1.25578 80.1146 1.0213ZM81.6 19.4111C80.6611 19.4111 79.9 18.647 79.9 17.7044C79.9 16.7618 80.6611 15.9976 81.6 15.9976C82.5389 15.9976 83.3 16.7618 83.3 17.7044C83.3 18.647 82.5389 19.4111 81.6 19.4111Z" fill="white"/>
<rect y="40.3185" width="102" height="2.98678" fill="#F79817"/>
<rect y="77.0132" width="102" height="2.98678" fill="#F79817"/>
</svg>
